Coordinates
version=1
nRows=12
nColumns=23
inDegrees=yes

Units are S.I. units (second, meters, Newtons, ...)
If the header above contains a line with 'inDegrees', this indicates whether rotational values are in degrees (yes) or radians (no).

endheader
time	pelvis_tilt	pelvis_list	pelvis_rotation	pelvis_tx	pelvis_ty	pelvis_tz	hip_flexion_r	hip_adduction_r	hip_rotation_r	knee_angle_r	knee_angle_r_beta	ankle_angle_r	subtalar_angle_r	mtp_angle_r	hip_flexion_l	hip_adduction_l	hip_rotation_l	knee_angle_l	knee_angle_l_beta	ankle_angle_l	subtalar_angle_l	mtp_angle_l
     22.50000000	    -16.59157763	      5.36992875	      1.39748508	      2.16156856	      1.01230720	      0.98331952	     45.01415688	    -10.61265428	      1.44992474	    105.23708922	      1.83673370	    -18.69432648	    -11.14218875	      0.00000000	     25.27264637	      5.27021013	     -7.68450365	     41.47058000	      0.72379816	     25.64609119	     -7.27612948	      0.00000000
     22.50666667	    -16.37078998	      5.16894820	      0.93024003	      2.16329047	      1.01708211	      0.98381816	     45.94119306	    -10.06120334	      1.32935000	    103.64400149	      1.80892908	    -17.91074399	    -11.50950237	      0.00000000	     22.55251919	      4.82577121	     -8.29708904	     39.50686750	      0.68952492	     24.82924223	     -5.97387744	      0.00000000
     22.51333333	    -16.24132408	      4.89437810	      0.51087233	      2.16531750	      1.02211045	      0.98428658	     46.77847374	     -9.51022654	      1.01978997	    101.77378423	      1.77628763	    -17.10273390	    -11.94738979	      0.00000000	     19.90022070	      4.33321587	     -8.95734144	     37.42676077	      0.65322020	     23.51571835	     -4.69063884	      0.00000000
     22.52000000	    -16.05980338	      4.55754221	      0.08369667	      2.16765812	      1.02754519	      0.98472328	     47.37960160	     -8.93073819	      0.58958282	     99.63519738	      1.73896225	    -16.30877306	    -12.40271468	      0.00000000	     17.15526573	      3.80589027	     -9.68920913	     35.19347926	      0.61424209	     21.74194422	     -3.36324910	      0.00000000
     22.52666667	    -15.93470746	      4.18409538	     -0.33640566	      2.17020533	      1.03311473	      0.98514251	     47.88915506	     -8.34887641	      0.06668891	     97.26739075	      1.69763622	    -15.53814393	    -12.87230151	      0.00000000	     14.48168952	      3.27662551	    -10.47681741	     32.88785890	      0.57400142	     19.47558752	     -2.13506358	      0.00000000
     22.53333333	    -15.79490197	      3.74182683	     -0.71005676	      2.17297441	      1.03884576	      0.98547901	     48.20942741	     -7.78571393	     -0.61010702	     94.67659143	      1.65241825	    -14.76675693	    -13.28614522	      0.00000000	     11.82706989	      2.71531118	    -11.29216629	     30.55150101	      0.53322428	     16.79692480	     -0.91224833	      0.00000000
     22.54000000	    -15.62166957	      3.26691450	     -1.07503791	      2.17590931	      1.04469945	      0.98573994	     48.34071706	     -7.23121361	     -1.36438562	     91.87205905	      1.60346992	    -14.01747625	    -13.66376499	      0.00000000	      9.17454609	      2.17275677	    -12.12464063	     28.18245987	      0.49187672	     13.77516376	      0.22655119	      0.00000000
     22.54666667	    -15.64395696	      2.78639100	     -1.45207979	      2.17872933	      1.05018405	      0.98602563	     48.60404869	     -6.65351626	     -2.13261549	     88.92692221	      1.55206759	    -13.35186940	    -13.98171468	      0.00000000	      6.84479847	      1.62769948	    -13.07416622	     25.91930262	      0.45237717	     10.40102579	      1.19079223	      0.00000000
     22.55333333	    -15.63244758	      2.26965834	     -1.75295250	      2.18164043	      1.05566453	      0.98619873	     48.67769611	     -6.13643185	     -3.03791144	     85.79545542	      1.49741318	    -12.68441156	    -14.19000575	      0.00000000	      4.58117702	      1.10543482	    -13.89235815	     23.74524120	      0.41443264	      6.83250573	      2.02362196	      0.00000000
     22.56000000	    -15.70110452	      1.76379068	     -2.04255240	      2.18444777	      1.06086595	      0.98635734	     48.74604289	     -5.63761852	     -3.97434107	     82.51923993	      1.44023243	    -12.07060995	    -14.31401297	      0.00000000	      2.53458710	      0.61084755	    -14.70098623	     21.72584094	      0.37918746	      3.15531787	      2.64757141	      0.00000000
     22.56666667	    -15.85861071	      1.27693962	     -2.36233084	      2.18705104	      1.06573541	      0.98659043	     48.83646448	     -5.12733791	     -4.91802765	     79.10120021	      1.38057639	    -11.50431022	    -14.34645169	      0.00000000	      0.74735714	      0.12840945	    -15.55620634	     19.95122594	      0.34821458	     -0.49294976	      3.14513397	      0.00000000
     22.57333333	    -16.04258688	      0.83180937	     -2.56964073	      2.18957304	      1.07030567	      0.98673137	     48.85427388	     -4.71429555	     -5.92383250	     75.56236606	      1.31881208	    -10.96696905	    -14.25336500	      0.00000000	     -0.83946325	     -0.33095800	    -16.36821037	     18.44278486	      0.32188732	     -4.03281806	      3.38290057	      0.00000000
